<?xml version="1.0" encoding="iso-8859-1"?>
<!-- Generator: Adobe Illustrator 21.1.0, SVG Export Plug-In . SVG Version: 6.00 Build 0)  -->
<svg version="1.1" id="&#x421;&#x43B;&#x43E;&#x439;_1"
	 xmlns="http://www.w3.org/2000/svg" xmlns:xlink="http://www.w3.org/1999/xlink" x="0px" y="0px" viewBox="0 0 30 25"
	 style="enable-background:new 0 0 30 25;" xml:space="preserve">
<g>
	<path style="fill:#F9D714;" d="M18,1h-6v2h6V1z M18,13h-2v2h2V13z M22,13h-2v2h2V13z M16,19h2v-2h-2V19z M22,0h-2v4h2V0z M18,9h-2
		v2h2V9z M26,9h-2v2h2V9z M26,13h-2v2h2V13z M22,9h-2v2h2V9z M24,1v2h4v20H2V3h4V1H0v24h30V1H24z M10,17H8v2h2V17z M6,13H4v2h2V13z
		 M10,13H8v2h2V13z M4,19h2v-2H4V19z M14,9h-2v2h2V9z M14,13h-2v2h2V13z M14,17h-2v2h2V17z M10,0H8v4h2V0z M22,17h-2v2h2V17z M22,17
		"/>
</g>
</svg>
