<?xml version="1.0" encoding="iso-8859-1"?>
<!-- Generator: Adobe Illustrator 21.1.0, SVG Export Plug-In . SVG Version: 6.00 Build 0)  -->
<svg version="1.1" id="&#x421;&#x43B;&#x43E;&#x439;_1"
	 xmlns="http://www.w3.org/2000/svg" xmlns:xlink="http://www.w3.org/1999/xlink" x="0px" y="0px" viewBox="0 0 250 227.725"
	 style="enable-background:new 0 0 250 227.725;" xml:space="preserve">
<g>
	<path style="fill:#F2F2F2;" d="M191.275,53.685c0,7.573-5.516,12.18-9.54,15.56c-1.524,1.281-4.362,3.615-4.355,4.49
		c0.027,3.423-2.724,6.157-6.148,6.157h-0.053c-3.396,0-6.167-2.65-6.194-6.056c-0.058-6.712,4.842-10.734,8.78-14.037
		c3.087-2.596,5.115-4.418,5.115-6.09c0-3.38-2.751-6.13-6.134-6.13c-3.38,0-6.134,2.751-6.134,6.13
		c0,3.424-2.775,6.198-6.198,6.198c-3.424,0-6.198-2.774-6.198-6.198c0-10.216,8.313-18.529,18.529-18.529
		C182.962,35.179,191.275,43.469,191.275,53.685L191.275,53.685z M171.35,85.612c-3.424,0-6.06,2.774-6.06,6.198v0.047
		c0,3.423,2.639,6.177,6.06,6.177c3.424,0,6.201-2.801,6.201-6.224C177.551,88.386,174.777,85.612,171.35,85.612L171.35,85.612z
		 M46.414,128.79c-3.423,0-6.198,2.775-6.198,6.197c0,3.424,2.775,6.198,6.198,6.198h0.515c3.426,0,6.201-2.774,6.201-6.198
		c0-3.423-2.775-6.197-6.201-6.197H46.414z M67.957,128.79c-3.424,0-6.198,2.775-6.198,6.197c0,3.424,2.775,6.198,6.198,6.198h0.514
		c3.424,0,6.198-2.774,6.198-6.198c0-3.423-2.774-6.197-6.198-6.197H67.957z M250,29.788v69.765
		c0,16.519-13.242,29.923-29.761,29.923h-80.385c-1.57,0-2.865-0.007-3.948-0.03c-1.136-0.024-2.411-0.034-2.909,0.023
		c-0.517,0.343-1.792,1.507-3.017,2.637c-0.484,0.447-1.036,0.938-1.627,1.479l-22.743,20.728c-1.813,1.655-4.496,2.085-6.746,1.093
		c-2.247-0.989-3.824-3.215-3.824-5.67V84.024H30.111c-9.685,0-17.716,7.937-17.716,17.618v69.765
		c0,9.685,8.031,17.299,17.716,17.299h89.787c1.547,0,2.993,0.709,4.137,1.752l18.53,17.083v-58.911
		c0-3.424,2.774-6.198,6.198-6.198c3.423,0,6.198,2.774,6.198,6.198v72.96c0,2.454-1.406,4.647-3.652,5.636
		c-0.804,0.356-1.611,0.498-2.455,0.498c-1.519,0-3.017-0.626-4.18-1.688l-27.176-24.936H30.111C13.593,201.102,0,187.929,0,171.408
		v-69.765c0-16.519,13.593-30.017,30.111-30.017H95.04V29.788C95.04,13.267,108.738,0,125.256,0h94.983
		C236.758,0,250,13.267,250,29.788L250,29.788z M237.605,29.788c0-9.685-7.684-17.392-17.366-17.392h-94.983
		c-9.685,0-17.816,7.708-17.816,17.392v105.899l12.462-11.262c0.575-0.525,1.224-1.009,1.695-1.443
		c5.69-5.246,7.146-6.084,14.568-5.929c1.012,0.021,2.219,0.027,3.689,0.027h80.385c9.682,0,17.366-7.842,17.366-17.527V29.788z
		 M237.605,29.788"/>
</g>
</svg>
