<?xml version="1.0" encoding="iso-8859-1"?>
<!-- Generator: Adobe Illustrator 21.1.0, SVG Export Plug-In . SVG Version: 6.00 Build 0)  -->
<svg version="1.1" id="&#x421;&#x43B;&#x43E;&#x439;_1"
	 xmlns="http://www.w3.org/2000/svg" xmlns:xlink="http://www.w3.org/1999/xlink" x="0px" y="0px" viewBox="0 0 40 40.006"
	 style="enable-background:new 0 0 40 40.006;" xml:space="preserve">
<g>
	<path style="fill:#FFD700;" d="M17.959,19.13c0,0.713-0.548,1.173-1.468,1.173h-0.726v-2.25c0.132-0.024,0.386-0.063,0.832-0.063
		C17.447,18.002,17.959,18.381,17.959,19.13L17.959,19.13z M40,19.999c0,1.557-0.605,3.013-1.702,4.109l-2.45,2.458v3.471
		c0,3.2-2.61,5.81-5.81,5.81h-3.471l-2.458,2.457c-1.095,1.097-2.558,1.702-4.109,1.702c-1.549,0-3.012-0.605-4.107-1.708
		l-2.452-2.45H9.962c-1.55,0-3.007-0.605-4.109-1.702c-1.097-1.097-1.695-2.552-1.695-4.102v-3.478l-2.457-2.458
		C0.605,23.012,0,21.556,0,20.006c0-1.555,0.605-3.012,1.702-4.109l2.457-2.457V9.969c0-3.202,2.602-5.81,5.804-5.81h3.471
		l2.458-2.457C16.988,0.605,18.451,0,19.999,0c1.55,0,3.013,0.605,4.109,1.702l2.452,2.457h3.478c1.55,0,3.005,0.605,4.102,1.695
		c1.103,1.103,1.702,2.558,1.702,4.109v3.478l2.457,2.457C39.395,16.994,40,18.451,40,19.999L40,19.999z M12.545,16.686H7.556v8.159
		h1.852v-3.283h2.936v-1.499H9.408v-1.866h3.137v-1.518V16.686z M20.101,24.845c-0.158-0.315-0.416-1.379-0.668-2.299
		c-0.208-0.75-0.523-1.299-1.09-1.526v-0.037c0.7-0.252,1.437-0.971,1.437-2.01c0-0.75-0.265-1.324-0.75-1.708
		c-0.579-0.46-1.431-0.642-2.641-0.642c-0.982,0-1.865,0.076-2.457,0.169v8.053h1.828v-3.207h0.56
		c0.75,0.013,1.103,0.29,1.318,1.305c0.245,1.008,0.434,1.676,0.566,1.902H20.101z M26.319,23.333h-3.358v-1.941h3.007v-1.5h-3.007
		v-1.695h3.189v-1.518h-5.041v8.166h5.21V23.333z M32.778,23.333h-3.352v-1.941h3.005v-1.5h-3.005v-1.695h3.189v-1.518h-5.041v8.166
		h5.204V23.333z M32.778,23.333"/>
</g>
<g>
</g>
<g>
</g>
<g>
</g>
<g>
</g>
<g>
</g>
<g>
</g>
<g>
</g>
<g>
</g>
<g>
</g>
<g>
</g>
<g>
</g>
<g>
</g>
<g>
</g>
<g>
</g>
<g>
</g>
</svg>
