<?xml version="1.0" encoding="iso-8859-1"?>
<!-- Generator: Adobe Illustrator 21.1.0, SVG Export Plug-In . SVG Version: 6.00 Build 0)  -->
<svg version="1.1" id="Layer_1" xmlns="http://www.w3.org/2000/svg" xmlns:xlink="http://www.w3.org/1999/xlink" x="0px" y="0px"
	 viewBox="199.001 392.139 16 9.722" style="enable-background:new 199.001 392.139 16 9.722;" xml:space="preserve">
<g>
	<path style="fill:#E6E6E6;" d="M214.99,392.957c-0.001-0.452-0.368-0.818-0.82-0.818c0,0-0.001,0-0.001,0l-14.35,0.02
		c-0.219,0-0.425,0.086-0.579,0.241c-0.155,0.155-0.24,0.361-0.239,0.58l0.011,8.063c0,0.219,0.086,0.425,0.241,0.579
		c0.155,0.154,0.36,0.239,0.579,0.239c0,0,0.001,0,0.001,0l14.35-0.02c0.452-0.001,0.819-0.369,0.818-0.821L214.99,392.957z
		 M209.652,398.14l3.718,2.883l-12.749,0.018l3.74-2.901c0.179-0.139,0.211-0.396,0.073-0.575c-0.139-0.179-0.396-0.211-0.575-0.073
		l-4.028,3.124l-0.01-7.265l6.948,4.802c0.07,0.048,0.152,0.073,0.233,0.073c0.082,0,0.164-0.024,0.234-0.073l6.935-4.821
		l0.01,7.283l-4.027-3.123c-0.179-0.139-0.436-0.106-0.575,0.073C209.441,397.744,209.473,398.001,209.652,398.14z M200.721,392.977
		l12.549-0.017l-6.268,4.358L200.721,392.977z"/>
</g>
</svg>
