<?xml version="1.0" encoding="iso-8859-1"?>
<!-- Generator: Adobe Illustrator 21.1.0, SVG Export Plug-In . SVG Version: 6.00 Build 0)  -->
<svg version="1.1" id="&#x421;&#x43B;&#x43E;&#x439;_1"
	 xmlns="http://www.w3.org/2000/svg" xmlns:xlink="http://www.w3.org/1999/xlink" x="0px" y="0px" viewBox="0 0 15 15.076"
	 style="enable-background:new 0 0 15 15.076;" xml:space="preserve">
<g>
	<g>
		<defs>
			<rect id="SVGID_1_" width="15" height="15.076"/>
		</defs>
		<clipPath id="SVGID_2_">
			<use xlink:href="#SVGID_1_"  style="overflow:visible;"/>
		</clipPath>
		<path style="clip-path:url(#SVGID_2_);fill:#E6E6E6;" d="M11.846,9.329c-0.307-0.32-0.678-0.491-1.07-0.491
			c-0.389,0-0.763,0.168-1.083,0.488l-1.001,0.997c-0.082-0.044-0.165-0.085-0.244-0.127c-0.114-0.057-0.222-0.111-0.314-0.168
			C7.198,9.433,6.346,8.657,5.529,7.654c-0.396-0.5-0.662-0.922-0.855-1.349c0.26-0.237,0.5-0.485,0.735-0.722
			c0.089-0.089,0.177-0.18,0.266-0.269c0.665-0.665,0.665-1.526,0-2.191L4.81,2.258C4.712,2.16,4.611,2.058,4.516,1.957
			c-0.19-0.196-0.389-0.399-0.595-0.589C3.613,1.064,3.246,0.903,2.86,0.903c-0.386,0-0.76,0.161-1.077,0.465L1.777,1.374L0.7,2.46
			C0.295,2.866,0.064,3.36,0.013,3.933c-0.076,0.925,0.196,1.786,0.405,2.35c0.513,1.384,1.279,2.666,2.422,4.041
			c1.387,1.656,3.056,2.964,4.962,3.885c0.728,0.345,1.7,0.754,2.786,0.823c0.067,0.003,0.136,0.006,0.2,0.006
			c0.732,0,1.346-0.263,1.827-0.785c0.003-0.006,0.009-0.009,0.013-0.016c0.165-0.199,0.355-0.38,0.554-0.573
			c0.136-0.13,0.275-0.266,0.412-0.409c0.314-0.326,0.478-0.706,0.478-1.096c0-0.393-0.168-0.77-0.487-1.086L11.846,9.329z
			 M12.98,12.663C12.977,12.663,12.977,12.666,12.98,12.663c-0.124,0.133-0.25,0.253-0.386,0.386
			c-0.206,0.196-0.415,0.402-0.611,0.633c-0.32,0.342-0.697,0.503-1.191,0.503c-0.047,0-0.098,0-0.146-0.003
			c-0.94-0.06-1.814-0.428-2.47-0.741c-1.792-0.868-3.366-2.1-4.674-3.661c-1.08-1.302-1.802-2.505-2.28-3.797
			C0.928,5.196,0.821,4.582,0.868,4.003C0.9,3.632,1.042,3.325,1.305,3.062l1.08-1.08c0.155-0.146,0.32-0.225,0.481-0.225
			c0.199,0,0.361,0.12,0.462,0.222l0.009,0.009c0.193,0.181,0.377,0.367,0.57,0.567c0.098,0.101,0.199,0.203,0.301,0.307
			l0.864,0.864c0.336,0.336,0.336,0.646,0,0.982c-0.092,0.092-0.18,0.184-0.272,0.272C4.535,5.253,4.282,5.507,4.006,5.754
			C4,5.76,3.993,5.763,3.99,5.769C3.718,6.042,3.769,6.308,3.826,6.488l0.01,0.029C4.06,7.061,4.377,7.574,4.858,8.186l0.003,0.003
			c0.874,1.077,1.795,1.916,2.812,2.559c0.13,0.082,0.263,0.149,0.389,0.212c0.114,0.057,0.222,0.111,0.314,0.168
			c0.013,0.006,0.025,0.016,0.038,0.022c0.108,0.054,0.209,0.079,0.313,0.079c0.263,0,0.428-0.165,0.481-0.218l1.083-1.083
			C10.399,9.819,10.57,9.69,10.77,9.69c0.196,0,0.358,0.123,0.456,0.231l1.751,1.751C13.303,11.995,13.303,12.328,12.98,12.663
			L12.98,12.663z M12.98,12.663"/>
		<path style="clip-path:url(#SVGID_2_);fill:#E6E6E6;" d="M8.097,3.604c0.83,0.139,1.583,0.532,2.185,1.134
			c0.602,0.602,0.991,1.355,1.134,2.185c0.035,0.209,0.215,0.355,0.421,0.355c0.025,0,0.047-0.003,0.073-0.006
			c0.234-0.038,0.389-0.26,0.351-0.494c-0.171-1.004-0.646-1.919-1.371-2.644c-0.725-0.725-1.64-1.2-2.644-1.371
			C8.012,2.723,7.793,2.878,7.752,3.11C7.711,3.341,7.863,3.565,8.097,3.604L8.097,3.604z M8.097,3.604"/>
		<path style="clip-path:url(#SVGID_2_);fill:#E6E6E6;" d="M14.975,6.653C14.693,5,13.914,3.496,12.717,2.299
			c-1.197-1.197-2.701-1.976-4.354-2.258C8.132,0,7.914,0.158,7.873,0.389C7.834,0.624,7.99,0.842,8.224,0.884
			c1.476,0.25,2.821,0.95,3.892,2.017c1.07,1.07,1.767,2.416,2.017,3.892c0.035,0.209,0.215,0.355,0.421,0.355
			c0.025,0,0.048-0.003,0.073-0.006C14.858,7.106,15.016,6.884,14.975,6.653L14.975,6.653z M14.975,6.653"/>
	</g>
</g>
</svg>
