<?xml version="1.0" encoding="iso-8859-1"?>
<!-- Generator: Adobe Illustrator 21.1.0, SVG Export Plug-In . SVG Version: 6.00 Build 0)  -->
<svg version="1.1" id="&#x421;&#x43B;&#x43E;&#x439;_1"
	 xmlns="http://www.w3.org/2000/svg" xmlns:xlink="http://www.w3.org/1999/xlink" x="0px" y="0px" viewBox="0 0 190 169.643"
	 style="enable-background:new 0 0 190 169.643;" xml:space="preserve">
<g>
	<g>
		<defs>
			<rect id="SVGID_1_" width="190" height="169.643"/>
		</defs>
		<clipPath id="SVGID_2_">
			<use xlink:href="#SVGID_1_"  style="overflow:visible;"/>
		</clipPath>
		<path style="clip-path:url(#SVGID_2_);fill:#F2F2F2;" d="M101.553,54.95c1.661-3.979,2.764-8.588,3.011-13.423
			c0.361-4.856-0.304-9.91-1.739-14.822c-1.52-4.891-3.81-9.634-7.04-13.727c-3.153-4.086-7.125-7.563-11.295-9.825
			C80.319,0.884,75.986-0.078,72.975,0c-1.492-0.049-2.785,0.36-3.534,0.587c-0.771,0.247-1.188,0.382-1.188,0.382
			s0.085,0.417,0.247,1.188c0.17,0.749,0.198,2.014,0.304,3.174c0.113,2.573-0.134,5.662-0.466,9.062
			c-0.551,6.651-0.417,14.469,2.014,22.139c1.187,3.838,2.764,7.648,4.863,11.182c2.015,3.534,4.446,6.821,6.927,9.613
			c2.241,2.481,7.288,8.256,9.14,9.719c0.467-3.259,0.855-6.602,0.94-10.023c0.191-2.375,0.028-4.75,0-7.097
			c-0.057-2.375-0.473-4.637-0.665-6.878c-0.41-2.177-0.94-4.276-1.378-6.291c-0.693-1.937-1.357-3.76-1.965-5.442
			c-0.884-1.569-1.654-3.04-2.347-4.333c-0.608-1.357-1.626-2.213-2.205-3.068c-1.329-1.654-2.071-2.594-2.071-2.594
			s0.827,0.884,2.233,2.432c0.665,0.827,1.767,1.626,2.488,2.955c0.799,1.244,1.682,2.679,2.679,4.22
			c0.742,1.661,1.569,3.485,2.432,5.414c0.608,2.015,1.294,4.142,1.873,6.376c0.388,2.269,0.997,4.587,1.216,6.991
			c0.219,2.403,0.551,4.856,0.551,7.316c0.085,2.785,0.057,5.577-0.078,8.284c0.219-0.248,0.495-0.445,0.686-0.693
			C97.743,62.266,99.87,58.923,101.553,54.95L101.553,54.95z M101.553,54.95"/>
	</g>
	<path style="fill:#F2F2F2;" d="M79.661,75.329c0.382,0.608,0.686,1.187,1.018,1.767C62.238,80.63,47.274,93.94,41.365,111.413
		l1.209,0.141c1.52,0.028,3.838,0.382,7.818,1.074c0.085-1.159,0.495-2.318,1.216-3.287c2.955-3.866,7.203-5.909,12.342-5.909
		c7.733,0.028,15.904,0.247,24.16,2.764c4.361,1.301,8.807,1.046,13.338-0.749c12.999-5.217,24.457-4.743,33.681,1.272
		c1.159,0.749,2.347,1.548,3.534,2.347c-6.567-16.731-21.594-29.242-39.845-32.218c0.502-0.862,0.968-1.746,1.52-2.629
		c0.53-0.827,1.548-3.032,1.414-3.555c-0.057-0.304-0.057-0.636-0.057-0.94c-1.852,2.319-3.534,4.665-4.997,6.899
		c-0.912-0.106-1.824-0.134-2.764-0.219c0.495-3.449,0.883-7.181,1.074-11.097c-0.304,0.304-0.551,0.608-0.884,0.883
		c-0.608,0.41-1.491,3.478-1.711,4.75c-0.304,1.845-0.664,3.584-1.046,5.273c-0.304,0-0.608-0.057-0.94-0.057
		c-2.651,0-5.245,0.219-7.811,0.608c-1.301-1.958-2.679-3.923-4.283-5.937c0,0.332,0,0.636-0.057,0.968
		C78.142,72.317,79.159,74.523,79.661,75.329L79.661,75.329z M79.661,75.329"/>
	<path style="fill:#F2F2F2;" d="M109.724,61.078c1.329-1.272,2.82-2.29,4.17-3.393c1.435-0.997,2.898-1.852,4.255-2.707
		c1.435-0.664,2.813-1.301,4.086-1.88c1.322-0.382,2.538-0.742,3.647-1.046c1.046-0.389,2.071-0.332,2.842-0.474
		c1.604-0.162,2.509-0.247,2.509-0.247s-0.905,0.17-2.481,0.445c-0.778,0.191-1.767,0.191-2.792,0.657
		c-1.018,0.36-2.205,0.806-3.478,1.272c-1.187,0.664-2.46,1.378-3.838,2.128c-1.244,0.94-2.594,1.852-3.923,2.926
		c-1.209,1.159-2.594,2.234-3.781,3.562c-1.216,1.322-2.481,2.594-3.563,4.057c-1.654,1.958-3.089,4.086-4.446,6.185
		c1.767,0.085,7.542-0.693,10.051-0.997c2.82-0.354,5.832-1.018,8.73-2.043c2.955-0.933,5.739-2.347,8.334-3.916
		c5.224-3.174,9.196-7.542,12.179-11.628c1.519-2.099,2.926-3.973,4.255-5.386c0.657-0.601,1.293-1.322,1.767-1.654
		c0.466-0.36,0.714-0.551,0.714-0.551s-0.163-0.304-0.467-0.827c-0.332-0.502-0.855-1.385-1.739-2.071
		c-1.689-1.576-4.616-3.145-8.122-3.951c-3.506-0.771-7.507-0.799-11.345-0.028c-3.866,0.721-7.542,2.269-10.822,4.312
		c-3.287,2.099-6.164,4.637-8.397,7.563c-2.262,2.898-3.923,6.072-4.969,9.168c-1.025,3.117-1.463,6.072-1.463,8.419
		c0,0.247,0.057,0.502,0.057,0.749c1.265-1.633,2.622-3.202,4.085-4.75C106.967,63.567,108.402,62.351,109.724,61.078
		L109.724,61.078z M109.724,61.078"/>
	<g>
		<defs>
			<rect id="SVGID_3_" width="190" height="169.643"/>
		</defs>
		<clipPath id="SVGID_4_">
			<use xlink:href="#SVGID_3_"  style="overflow:visible;"/>
		</clipPath>
		<path style="clip-path:url(#SVGID_4_);fill:#F2F2F2;" d="M33.547,49.734c1.329,1.407,2.735,3.28,4.227,5.379
			c3.011,4.064,6.983,8.454,12.172,11.628c2.601,1.576,5.386,2.983,8.341,3.923c2.927,1.018,5.937,1.682,8.751,2.043
			c2.516,0.304,8.284,1.046,10.051,0.961c-1.35-2.099-2.813-4.192-4.446-6.157c-1.103-1.463-2.375-2.728-3.562-4.057
			c-1.187-1.322-2.566-2.403-3.781-3.591c-1.322-1.046-2.679-1.958-3.944-2.898c-1.357-0.742-2.651-1.463-3.81-2.128
			c-1.3-0.467-2.46-0.912-3.506-1.293c-1.025-0.474-2.022-0.445-2.792-0.636c-1.576-0.304-2.46-0.473-2.46-0.473
			s0.912,0.113,2.488,0.283c0.799,0.134,1.824,0.05,2.87,0.467c1.075,0.304,2.318,0.665,3.647,1.046
			c1.265,0.58,2.651,1.216,4.085,1.88c1.35,0.855,2.813,1.711,4.248,2.707c1.329,1.103,2.849,2.128,4.17,3.393
			c1.329,1.244,2.736,2.488,3.951,3.895c1.463,1.52,2.785,3.117,4.086,4.75c0-0.247,0.057-0.495,0.057-0.749
			c0.028-2.368-0.445-5.322-1.463-8.447c-1.053-3.089-2.707-6.27-4.969-9.139c-2.241-2.927-5.11-5.492-8.397-7.564
			c-3.287-2.043-6.955-3.591-10.822-4.312c-3.838-0.771-7.839-0.771-11.352,0.028c-3.506,0.778-6.461,2.375-8.115,3.951
			c-0.884,0.693-1.407,1.576-1.739,2.071c-0.304,0.523-0.495,0.827-0.495,0.827s0.276,0.17,0.742,0.551
			C32.246,48.405,32.882,49.126,33.547,49.734L33.547,49.734z M33.547,49.734"/>
		<path style="clip-path:url(#SVGID_4_);fill:#F2F2F2;" d="M160.115,135.715c-7.952-10.801-18.385-18.83-29.348-25.984
			c-8.921-5.796-19.078-4.588-28.521-0.799c-5.775,2.318-11.515,2.622-17.063,0.912c-7.429-2.241-14.915-2.488-22.478-2.488
			c-3.259-0.028-5.937,1.103-7.867,3.676c-1.081,1.407,7.754,7.344,15.353,7.344c-1.414,2.785-25.956-3.153-29.214-2.905
			l-18.555-2.375c-6.602-0.551-6.574-3.032-13.062,0.636c-0.219,0.142-0.552,0.142-0.799,0.113c-3.619-0.219-5.662,0.94-7.676,3.315
			c-1.159,1.378-1.046,3.089-0.445,4.693c0.665,1.682,2.326,1.244,3.676,1.795c8.284,3.287,10.963,4.884,22.23,7.648
			c8.001,1.986,15.791,4.39,23.771,6.213c3.315,0.742,6.68,1.293,9.663,2.976c6.326,3.562,13.034,4.644,20.265,4.312
			c8.227-0.36,16.455-0.057,24.683-0.085c14.413-0.085,25.376,5.718,32.805,18.42l46.44-0.085
			C173.842,151.173,169.367,148.303,160.115,135.715L160.115,135.715z M160.115,135.715"/>
	</g>
</g>
</svg>
