<?xml version="1.0" encoding="iso-8859-1"?>
<!-- Generator: Adobe Illustrator 21.1.0, SVG Export Plug-In . SVG Version: 6.00 Build 0)  -->
<svg version="1.1" id="&#x421;&#x43B;&#x43E;&#x439;_1"
	 xmlns="http://www.w3.org/2000/svg" xmlns:xlink="http://www.w3.org/1999/xlink" x="0px" y="0px" viewBox="0 0 25 22.321"
	 style="enable-background:new 0 0 25 22.321;" xml:space="preserve">
<g>
	<g>
		<defs>
			<rect id="SVGID_1_" width="25" height="22.321"/>
		</defs>
		<clipPath id="SVGID_2_">
			<use xlink:href="#SVGID_1_"  style="overflow:visible;"/>
		</clipPath>
		<path style="clip-path:url(#SVGID_2_);fill:#FFFFFF;" d="M0,21.014V3.378c0-0.689,0.556-1.245,1.245-1.245h15.636l-2.485,2.485
			H2.485v15.151h15.151v-6.435l2.485-2.485v10.165c0,0.684-0.556,1.245-1.245,1.245H1.245C0.556,22.26,0,21.703,0,21.014L0,21.014z
			 M10.824,11.472L8.17,8.818c-0.745-0.745-1.954-0.745-2.699,0C5.108,9.18,4.909,9.66,4.909,10.17s0.199,0.99,0.561,1.347
			l4.001,4.001c0.745,0.745,1.955,0.745,2.7,0L24.393,3.296c0.362-0.362,0.561-0.842,0.561-1.347c0-0.51-0.199-0.99-0.561-1.352
			c-0.745-0.745-1.954-0.745-2.7,0L10.824,11.472z M10.824,11.472"/>
	</g>
</g>
</svg>
