<?xml version="1.0" encoding="iso-8859-1"?>
<!-- Generator: Adobe Illustrator 21.1.0, SVG Export Plug-In . SVG Version: 6.00 Build 0)  -->
<svg version="1.1" id="Capa_1" xmlns="http://www.w3.org/2000/svg" xmlns:xlink="http://www.w3.org/1999/xlink" x="0px" y="0px"
	 viewBox="99.5 289.5 215 215" style="enable-background:new 99.5 289.5 215 215;" xml:space="preserve">
<g>
	<path style="fill:#F2F2F2;" d="M210.583,293.083v7.167c-1.182,0-2.401,0-3.583,0s-2.401,0-3.583,0v-7.167
		c0-1.979,1.604-3.583,3.583-3.583S210.583,291.104,210.583,293.083z"/>
	<path style="fill:#F2F2F2;" d="M210.583,493.75v7.167c0,1.979-1.604,3.583-3.583,3.583s-3.583-1.604-3.583-3.583v-7.167
		c1.182,0,2.401,0,3.583,0S209.401,493.75,210.583,493.75z"/>
	<path style="fill:#F2F2F2;" d="M110.25,397c0,1.182,0,2.401,0,3.583h-7.167c-1.979,0-3.583-1.604-3.583-3.583
		s1.604-3.583,3.583-3.583h7.167C110.25,394.599,110.25,395.818,110.25,397z"/>
	<path style="fill:#F2F2F2;" d="M314.5,397c0,1.979-1.604,3.583-3.583,3.583h-7.167c0-1.182,0-2.401,0-3.583s0-2.401,0-3.583h7.167
		C312.896,393.417,314.5,395.021,314.5,397z"/>
	<path style="fill:#F2F2F2;" d="M239.035,400.583c-1.679,14.963-13.489,26.772-28.452,28.452v43.215
		c38.807-1.808,69.859-32.86,71.667-71.667H239.035z M210.583,321.75v43c15.034,1.699,26.866,13.62,28.452,28.667h43.215
		C280.442,354.61,249.39,323.558,210.583,321.75z M131.75,393.417h43c1.699-15.034,13.62-26.866,28.667-28.452V321.75
		C164.61,323.558,133.558,354.61,131.75,393.417z M174.75,400.583h-43c1.808,38.807,32.86,69.859,71.667,71.667v-43
		c-15.034-1.699-26.866-13.62-28.452-28.667H174.75z"/>
	<path style="fill:#F2F2F2;" d="M203.417,372.203v21.213h-21.213C183.801,382.43,192.43,373.801,203.417,372.203z"/>
	<path style="fill:#F2F2F2;" d="M203.417,400.583v21.213c-10.986-1.597-19.616-10.227-21.213-21.213H203.417z"/>
	<path style="fill:#F2F2F2;" d="M231.797,400.583c-1.597,10.986-10.227,19.616-21.213,21.213v-21.213H231.797z"/>
	<path style="fill:#F2F2F2;" d="M231.797,393.417h-21.213v-21.213C221.57,373.801,230.199,382.43,231.797,393.417z"/>
	<path style="fill:#F2F2F2;" d="M124.583,400.583H110.25c1.844,50.671,42.496,91.322,93.167,93.167v-14.333
		C160.656,477.595,126.405,443.344,124.583,400.583z M110.25,393.417h14.333c1.822-42.761,36.072-77.011,78.833-78.833V300.25
		C152.746,302.094,112.094,342.746,110.25,393.417z M210.583,300.25v14.333c42.761,1.822,77.011,36.072,78.833,78.833h14.333
		C301.906,342.746,261.254,302.094,210.583,300.25z M289.417,400.583c-1.822,42.761-36.072,77.011-78.833,78.833v14.333
		c50.671-1.844,91.322-42.496,93.167-93.167H289.417z"/>
</g>
</svg>
