<?xml version="1.0" encoding="iso-8859-1"?>
<!-- Generator: Adobe Illustrator 21.1.0, SVG Export Plug-In . SVG Version: 6.00 Build 0)  -->
<svg version="1.1" id="&#x421;&#x43B;&#x43E;&#x439;_1"
	 xmlns="http://www.w3.org/2000/svg" xmlns:xlink="http://www.w3.org/1999/xlink" x="0px" y="0px" viewBox="0 0 245 209.289"
	 style="enable-background:new 0 0 245 209.289;" xml:space="preserve">
<g>
	<g>
		<defs>
			
				<rect id="SVGID_1_" x="-5.408" y="-65.514" transform="matrix(0.3467 -0.938 0.938 0.3467 -5.4147 150.1574)" width="221" height="288.96"/>
		</defs>
		<clipPath id="SVGID_2_">
			<use xlink:href="#SVGID_1_"  style="overflow:visible;"/>
		</clipPath>
		<path style="clip-path:url(#SVGID_2_);fill:#F2F2F2;" d="M3.108,7.17c-1.236,0.516-2.426,3.263-2.887,6.682
			c-0.752,5.569-0.57,20.027,17.286,33.947c23.096,18.006,27.571,62.248,27.171,64.242c-0.102,0.374-2.22,0.369-3.767,0.365
			c-3.271-0.008-8.215-0.023-13.888,1.827c-9.349,3.045-12.183,11.79-12.671,13.588c-0.884,0.512-3.396,2.269-3.739,5.781
			c-0.586,5.98,2.251,7.699,3.499,8.16c0.429,0.159,0.731,0.194,0.791,0.201l0.324,0.033l0.233-0.229
			c0.058-0.058,5.911-5.693,15.413-4.771c1.062,0.103,2.213,0.384,3.423,0.831c5.914,2.186,12.456,7.955,18.783,13.535
			c3.429,3.027,6.667,5.884,9.636,8.001c2.209,1.58,8.49,4.289,18.662,8.049c18.072,6.681,44.677,15.301,62.048,20.677
			c1.26,1.182,2.477,2.461,3.761,3.81c1.363,1.43,2.771,2.909,4.464,4.533c5.48,5.25,13.921,9.513,19.487,11.571
			c5.573,2.06,5.912,1.144,6.093,0.654c0.135-0.366,0.505-1.377-7.132-10.495c3.89,2.748,9.252,6.278,12.867,7.615
			c2.092,0.773,3.459,0.743,4.181-0.093c1.996-2.308,0.987-4.725,0.175-6.668c-0.376-0.899-0.732-1.747-0.751-2.451
			c-0.014-0.538,0.221-0.696,1.559-1.067c1.328-0.363,3.149-0.865,3.948-3.027c0.396-1.072,1.226-3.305-37.184-23.133
			c-2.819-2.309-5.832-4.395-8.746-6.414c-5.052-3.5-9.826-6.801-10.091-9.215c-0.061-0.558,0.125-1.053,0.589-1.555
			c1.282-1.392,2.512-2.996,3.812-4.694c3.564-4.648,7.248-9.458,12.695-10.892c40.719-10.731,89.928-59.438,90.597-61.159
			c0.176-0.456,0.169-0.918-0.017-1.334c-0.445-0.989-1.756-1.473-3.022-1.945c-0.394-0.146-0.939-0.347-1.252-0.517
			c0.356-0.436,1.185-1.211,1.825-1.804c2.33-2.174,4.529-4.226,3.425-5.557c-0.251-0.302-0.588-0.535-1.01-0.691
			c-1.232-0.455-3.014-0.214-4.906,0.041c-1.726,0.234-3.508,0.476-4.527,0.099c-0.105-0.039-0.2-0.084-0.285-0.138
			c0.359-0.619,2.492-1.947,3.93-2.841c3.302-2.054,5.484-3.512,5.68-5.009c0.067-0.493-0.087-0.951-0.442-1.329
			c-0.238-0.255-0.548-0.455-0.911-0.59c-1.903-0.704-5.264,0.394-8.517,1.452c-1.917,0.627-4.278,1.396-5.164,1.268
			c0.673-0.941,4.067-3.142,6.374-4.637c5.788-3.746,9.008-5.949,7.948-7.614c-0.194-0.307-0.483-0.533-0.849-0.669
			c-1.925-0.712-5.922,1.146-12.28,4.284c-3.612,1.783-8.007,3.954-9.93,4.108c1.112-1.149,4.573-3.595,7.679-5.79
			c5.379-3.796,12.068-8.522,15.676-12.438c1.188-1.294,1.576-1.993,1.434-2.586c-0.075-0.309-0.295-0.553-0.607-0.669
			c-1.102-0.407-3.953,0.807-12.033,4.375c-14.816,6.541-42.4,18.72-70.694,22.214c-10.674,1.315-28.519,17.195-40.325,27.699
			c-3.74,3.328-6.694,5.955-8.517,7.314c-1.105,0.818-2.28,0.981-3.592,0.496c-7.011-2.592-15.321-22.186-19.313-31.603
			c-1.818-4.282-2.467-5.785-2.922-6.178c-0.864-0.746-1.397-2.513-1.956-4.38c-0.379-1.254-0.771-2.553-1.307-3.725
			c-0.533-1.152-1.371-1.928-2.571-2.372c-0.541-0.2-1.083-0.31-1.603-0.419c-0.787-0.16-1.491-0.341-1.845-0.675
			c-0.28-0.27-0.302-0.582-0.323-1.27c-0.04-1.31-0.1-3.29-3.305-5.805c-0.412-0.323-0.903-0.591-1.454-0.795
			c-3.354-1.24-8.528-0.016-12.687,0.969c-1.882,0.44-4.003,0.944-4.629,0.806c-0.138-0.615,0.783-2.93,1.399-4.482
			c1.228-3.077,2.386-5.984,1.45-7.434c-0.163-0.252-0.403-0.445-0.693-0.553c-1.177-0.435-3.064,0.481-6.044,2.013
			c-2.559,1.312-5.739,2.947-7.117,2.438c-0.15-0.055-0.269-0.135-0.362-0.246c-0.995-1.124,0.181-4.199,1.123-6.669
			c1.147-3.005,2.233-5.845,0.287-6.753c-1.867-0.871-5.077,1.419-8.459,3.866c-2.06,1.492-4.628,3.35-5.506,3.21
			c-0.522-0.457-0.322-4.309-0.191-6.854c0.272-5.228,0.529-10.17-1.835-11.044c-0.083-0.031-0.165-0.054-0.252-0.071
			c-2.872-0.649-4.624,4.259-6.176,8.592c-0.589,1.652-1.39,3.899-1.846,4.288c-0.115-0.003-0.219-0.024-0.318-0.06
			c-1.553-0.574-1.978-5.22-2.318-8.957c-0.433-4.769-0.784-7.724-2.442-8.337c-0.261-0.096-0.539-0.127-0.826-0.085
			c-2.763,0.39-3.318,6.245-3.856,11.91c-0.213,2.24-0.499,5.224-0.905,6.159c-0.328-0.591-0.803-2.185-1.165-3.397
			c-0.953-3.203-2.035-6.833-4.05-7.578C4.268,6.908,3.693,6.927,3.108,7.17L3.108,7.17z M3.108,7.17"/>
	</g>
</g>
</svg>
