<?xml version="1.0" encoding="iso-8859-1"?>
<!-- Generator: Adobe Illustrator 21.1.0, SVG Export Plug-In . SVG Version: 6.00 Build 0)  -->
<svg version="1.1" id="Layer_1" xmlns="http://www.w3.org/2000/svg" xmlns:xlink="http://www.w3.org/1999/xlink" x="0px" y="0px"
	 viewBox="192 386.038 30 21.924" style="enable-background:new 192 386.038 30 21.924;" xml:space="preserve">
<g>
	<path style="fill:#2A2A53;" d="M207,400.97c-2.189,0-3.97-1.781-3.97-3.97c0-2.189,1.781-3.97,3.97-3.97s3.97,1.781,3.97,3.97
		C210.97,399.189,209.189,400.97,207,400.97z M207,395.454c-0.853,0-1.546,0.694-1.546,1.546s0.694,1.546,1.546,1.546
		s1.546-0.694,1.546-1.546S207.853,395.454,207,395.454z"/>
	<path style="fill:#2A2A53;" d="M212.847,404.073c-0.31,0-0.62-0.118-0.857-0.355c-0.473-0.473-0.473-1.241,0-1.714l0.007-0.007
		c2.752-2.755,2.749-7.236-0.006-9.988c-0.473-0.473-0.474-1.24-0.001-1.714s1.24-0.474,1.714-0.001
		c3.701,3.697,3.704,9.715,0.007,13.416l-0.007,0.007C213.468,403.955,213.158,404.073,212.847,404.073z"/>
	<path style="fill:#2A2A53;" d="M201.153,404.06c-0.31,0-0.62-0.118-0.856-0.354c-3.701-3.697-3.704-9.715-0.007-13.416l0.007-0.007
		c0.473-0.473,1.241-0.473,1.714,0c0.473,0.473,0.473,1.241,0,1.714c-0.002,0.002-0.004,0.004-0.006,0.006
		c-1.333,1.335-2.067,3.109-2.066,4.995c0.001,1.887,0.737,3.66,2.071,4.993c0.474,0.473,0.474,1.24,0.001,1.714
		C201.773,403.941,201.463,404.06,201.153,404.06z"/>
	<path style="fill:#2A2A53;" d="M216.75,407.962c-0.31,0-0.62-0.118-0.857-0.355c-0.473-0.473-0.473-1.24,0-1.714
		c4.902-4.904,4.902-12.883,0-17.787c-0.473-0.473-0.473-1.241,0-1.714c0.473-0.473,1.241-0.473,1.714,0
		c2.833,2.834,4.393,6.6,4.393,10.607s-1.56,7.774-4.393,10.607C217.371,407.844,217.06,407.962,216.75,407.962z"/>
	<path style="fill:#2A2A53;" d="M197.25,407.962c-0.31,0-0.62-0.118-0.857-0.355C193.56,404.774,192,401.007,192,397
		s1.56-7.774,4.393-10.607c0.473-0.473,1.24-0.473,1.714,0c0.473,0.473,0.473,1.24,0,1.714c-4.902,4.904-4.902,12.883,0,17.787
		c0.473,0.473,0.473,1.241,0,1.714C197.87,407.844,197.56,407.962,197.25,407.962z"/>
</g>
</svg>
