<?xml version="1.0" encoding="iso-8859-1"?>
<!-- Generator: Adobe Illustrator 21.1.0, SVG Export Plug-In . SVG Version: 6.00 Build 0)  -->
<svg version="1.1" id="&#x421;&#x43B;&#x43E;&#x439;_1"
	 xmlns="http://www.w3.org/2000/svg" xmlns:xlink="http://www.w3.org/1999/xlink" x="0px" y="0px" viewBox="0 0 185 169.583"
	 style="enable-background:new 0 0 185 169.583;" xml:space="preserve">
<g>
	<path style="fill:#F2F2F2;" d="M169.63,132.244l-29.465-14.723c-2.771-1.399-4.502-4.186-4.502-7.3V99.804
		c0.709-0.875,1.445-1.854,2.212-2.937c3.827-5.392,6.895-11.397,9.111-17.887c4.351-1.985,7.18-6.294,7.18-11.139V55.492
		c0-2.964-1.114-5.839-3.087-8.082V30.999c0.181-1.688,0.859-11.79-6.444-20.115C138.299,3.658,128.032,0,114.091,0
		c-13.944,0-24.227,3.658-30.564,10.884c-7.304,8.325-6.61,18.427-6.444,20.115V47.41c-1.973,2.243-3.087,5.118-3.087,8.082v12.333
		c0,3.762,1.703,7.253,4.621,9.589c2.817,11.185,8.734,19.618,10.795,22.312v10.206c0,2.983-1.626,5.723-4.243,7.153l-27.507,15.008
		c-8.942,4.879-14.499,14.23-14.499,24.42v13.07H185v-12.464C185,146.52,179.115,136.989,169.63,132.244L169.63,132.244z
		 M169.63,132.244"/>
	<path style="fill:#F2F2F2;" d="M55.45,128.032l27.503-14.997c1.129-0.617,1.838-1.808,1.838-3.103v-8.672
		c-2.725-3.793-7.543-11.439-10.283-21.302c-3.284-3.191-5.134-7.512-5.134-12.118V55.492c0-3.461,1.083-6.833,3.087-9.678V31.227
		c-0.108-1.191-0.227-3.916,0.285-7.392c-4.247-1.476-8.957-2.243-14.168-2.243c-32.02,0-33.89,27.295-33.921,27.746v14.122
		c-1.985,2.166-3.068,4.683-3.068,7.18v10.645c0,3.326,1.488,6.429,4.031,8.522c2.548,9.589,8.811,16.847,11.231,19.39v8.444
		c0,2.44-1.307,4.652-3.596,5.92l-20.519,12.857C4.879,140.708,0,148.929,0,157.871v11.713h38.542v-13.07
		C38.542,144.635,45.017,133.72,55.45,128.032L55.45,128.032z M55.45,128.032"/>
</g>
</svg>
