<?xml version="1.0" encoding="iso-8859-1"?>
<!-- Generator: Adobe Illustrator 21.1.0, SVG Export Plug-In . SVG Version: 6.00 Build 0)  -->
<svg version="1.1" id="Layer_1" xmlns="http://www.w3.org/2000/svg" xmlns:xlink="http://www.w3.org/1999/xlink" x="0px" y="0px"
	 viewBox="122 322 170 150" style="enable-background:new 122 322 170 150;" xml:space="preserve">
<g>
	<path style="fill:#FFD700;" d="M290.802,458.84L214.36,326.297c-1.552-2.691-4.303-4.297-7.36-4.297s-5.808,1.607-7.36,4.297
		L123.197,458.84c-1.58,2.739-1.598,6.02-0.049,8.777c1.542,2.744,4.311,4.383,7.408,4.383h152.885c3.097,0,5.867-1.638,7.408-4.383
		C292.4,464.86,292.382,461.579,290.802,458.84z M286.231,464.924c-0.28,0.497-1.111,1.654-2.789,1.654H130.557
		c-1.678,0-2.509-1.157-2.789-1.654c-0.589-1.049-0.582-2.297,0.018-3.338l76.442-132.543c0.844-1.464,2.219-1.622,2.771-1.622
		c0.552,0,1.926,0.158,2.771,1.622l76.442,132.543C286.813,462.628,286.82,463.875,286.231,464.924z"/>
	<path style="fill:#FFD700;" d="M218.296,366.66c0.496,0.859,1.384,1.338,2.297,1.338c0.458,0,0.922-0.12,1.346-0.374
		c1.267-0.758,1.691-2.42,0.947-3.711l-2.231-3.868c-0.744-1.291-2.376-1.722-3.643-0.964c-1.267,0.758-1.691,2.42-0.947,3.711
		L218.296,366.66z"/>
	<path style="fill:#FFD700;" d="M228.551,373.738c-0.745-1.291-2.376-1.723-3.643-0.964c-1.268,0.758-1.691,2.419-0.947,3.71
		l45.29,78.527H144.748L207,347.073l3.38,5.861c0.744,1.291,2.376,1.722,3.643,0.964c1.268-0.758,1.691-2.42,0.947-3.711
		l-5.675-9.84c-0.478-0.829-1.351-1.338-2.295-1.338s-1.817,0.509-2.295,1.338l-66.902,116.001c-0.483,0.838-0.489,1.876-0.015,2.72
		c0.474,0.844,1.356,1.364,2.31,1.364h133.803c0.954,0,1.836-0.52,2.31-1.364c0.474-0.844,0.468-1.882-0.015-2.72L228.551,373.738z"
		/>
	<path style="fill:#FFD700;" d="M207.008,428.988c-4.598,0-8.339,3.81-8.339,8.494c0,4.684,3.741,8.494,8.339,8.494
		c4.598,0,8.339-3.81,8.339-8.494C215.347,432.798,211.606,428.988,207.008,428.988z M207.008,440.554
		c-1.663,0-3.016-1.378-3.016-3.072c0-1.694,1.353-3.072,3.016-3.072c1.663,0,3.016,1.378,3.016,3.072
		C210.025,439.176,208.672,440.554,207.008,440.554z"/>
	<path style="fill:#FFD700;" d="M212.686,379.831h-11.355c-0.739,0-1.444,0.313-1.948,0.863s-0.76,1.29-0.707,2.04l2.839,40.482
		c0.099,1.419,1.258,2.518,2.655,2.518h5.678c1.396,0,2.555-1.099,2.655-2.518l2.028-28.915c0.105-1.493-0.999-2.79-2.465-2.897
		c-1.462-0.106-2.739,1.017-2.844,2.511l-1.851,26.397h-0.721l-2.459-35.06h8.497c1.47,0,2.661-1.214,2.661-2.711
		S214.156,379.831,212.686,379.831z"/>
</g>
</svg>
